<svg xmlns="http://www.w3.org/2000/svg" width="34.239" height="34.239" viewBox="0 0 34.239 34.239">
  <path id="spotify" d="M17.119.563A17.119,17.119,0,1,0,34.239,17.682,17.125,17.125,0,0,0,17.119.563Zm6.951,25.189a1.317,1.317,0,0,1-.739-.249c-4.307-2.6-9.319-2.706-14.269-1.691a4.457,4.457,0,0,1-.821.179A1.075,1.075,0,0,1,7.152,22.9a1.094,1.094,0,0,1,.939-1.16c5.654-1.249,11.431-1.139,16.36,1.809a1.167,1.167,0,0,1,.67,1.139,1.043,1.043,0,0,1-1.049,1.063Zm1.857-4.528a1.7,1.7,0,0,1-.849-.29A22.37,22.37,0,0,0,8.608,18.9a2.843,2.843,0,0,1-.821.179,1.34,1.34,0,0,1-1.339-1.339,1.358,1.358,0,0,1,1.07-1.429,23.219,23.219,0,0,1,6.751-.939,24.164,24.164,0,0,1,12.218,3.141,1.439,1.439,0,0,1,.78,1.36,1.338,1.338,0,0,1-1.339,1.346Zm2.14-5.26a1.588,1.588,0,0,1-.89-.269c-4.915-2.934-13.7-3.638-19.391-2.05a3.279,3.279,0,0,1-.89.179,1.593,1.593,0,0,1-1.608-1.629,1.631,1.631,0,0,1,1.2-1.65A28.932,28.932,0,0,1,14.6,9.5c5.039,0,10.32,1.049,14.179,3.3a1.621,1.621,0,0,1,.89,1.56,1.6,1.6,0,0,1-1.6,1.608Z" transform="translate(0 -0.563)" fill="#fff"/>
</svg>
